<svg data-v-423bf9ae="" xmlns="http://www.w3.org/2000/svg" viewBox="0 0 594 90" class="iconLeft"><!----><!----><!----><g data-v-423bf9ae="" id="a634db2a-f9d2-4646-84d3-890f86385261" fill="white" transform="matrix(5.3523639425355505,0,0,5.3523639425355505,154.29795254685547,8.25601981451927)"><path d="M2.24 11.91L2.24 11.91Q2.24 12.10 2.12 12.21L2.12 12.21L2.12 12.21Q2.00 12.33 1.82 12.33L1.82 12.33L1.82 12.33Q1.65 12.33 1.53 12.21L1.53 12.21L1.53 12.21Q1.40 12.10 1.40 11.91L1.40 11.91L1.40 1.82L1.40 1.82Q1.40 1.64 1.53 1.52L1.53 1.52L1.53 1.52Q1.65 1.40 1.82 1.40L1.82 1.40L1.82 1.40Q2.00 1.40 2.12 1.52L2.12 1.52L2.12 1.52Q2.24 1.64 2.24 1.82L2.24 1.82L2.24 6.96L7.67 1.53L7.67 1.53Q7.83 1.40 7.99 1.40L7.99 1.40L7.99 1.40Q8.18 1.40 8.29 1.53L8.29 1.53L8.29 1.53Q8.41 1.65 8.41 1.82L8.41 1.82L8.41 1.82Q8.41 1.97 8.29 2.13L8.29 2.13L4.27 6.15L8.33 11.66L8.33 11.66Q8.41 11.79 8.41 11.91L8.41 11.91L8.41 11.91Q8.41 12.08 8.29 12.21L8.29 12.21L8.29 12.21Q8.16 12.33 8.01 12.33L8.01 12.33L8.01 12.33Q7.77 12.33 7.64 12.15L7.64 12.15L3.65 6.76L2.24 8.18L2.24 11.91ZM18.68 11.73L18.68 11.73Q18.72 11.82 18.72 11.91L18.72 11.91L18.72 11.91Q18.72 12.08 18.59 12.21L18.59 12.21L18.59 12.21Q18.47 12.33 18.30 12.33L18.30 12.33L18.30 12.33Q18.02 12.33 17.91 12.07L17.91 12.07L16.87 9.59L11.17 9.59L10.14 12.07L10.14 12.07Q10.04 12.33 9.74 12.33L9.74 12.33L9.74 12.33Q9.55 12.33 9.44 12.21L9.44 12.21L9.44 12.21Q9.32 12.08 9.32 11.91L9.32 11.91L9.32 11.91Q9.32 11.82 9.37 11.73L9.37 11.73L13.61 1.69L13.61 1.69Q13.72 1.40 14.01 1.40L14.01 1.40L14.01 1.40Q14.29 1.40 14.42 1.69L14.42 1.69L18.68 11.73ZM11.49 8.83L16.55 8.83L14.01 2.79L11.49 8.83ZM27.41 1.40L27.41 1.40Q27.58 1.40 27.68 1.50L27.68 1.50L27.68 1.50Q27.79 1.61 27.79 1.78L27.79 1.78L27.79 1.78Q27.79 1.95 27.68 2.05L27.68 2.05L27.68 2.05Q27.58 2.16 27.41 2.16L27.41 2.16L23.87 2.16L23.87 11.91L23.87 11.91Q23.87 12.10 23.75 12.21L23.75 12.21L23.75 12.21Q23.63 12.33 23.45 12.33L23.45 12.33L23.45 12.33Q23.27 12.33 23.15 12.21L23.15 12.21L23.15 12.21Q23.03 12.10 23.03 11.91L23.03 11.91L23.03 2.16L19.49 2.16L19.49 2.16Q19.32 2.16 19.21 2.05L19.21 2.05L19.21 2.05Q19.11 1.95 19.11 1.78L19.11 1.78L19.11 1.78Q19.11 1.61 19.21 1.50L19.21 1.50L19.21 1.50Q19.32 1.40 19.49 1.40L19.49 1.40L27.41 1.40ZM29.40 1.82L29.40 1.82Q29.40 1.64 29.52 1.52L29.52 1.52L29.52 1.52Q29.64 1.40 29.82 1.40L29.82 1.40L29.82 1.40Q30.00 1.40 30.12 1.52L30.12 1.52L30.12 1.52Q30.24 1.64 30.24 1.82L30.24 1.82L30.24 11.91L30.24 11.91Q30.24 12.10 30.12 12.21L30.12 12.21L30.12 12.21Q30.00 12.33 29.82 12.33L29.82 12.33L29.82 12.33Q29.64 12.33 29.52 12.21L29.52 12.21L29.52 12.21Q29.40 12.10 29.40 11.91L29.40 11.91L29.40 1.82ZM40.19 11.49L40.19 11.49Q40.36 11.49 40.49 11.62L40.49 11.62L40.49 11.62Q40.61 11.75 40.61 11.91L40.61 11.91L40.61 11.91Q40.61 12.10 40.49 12.21L40.49 12.21L40.49 12.21Q40.36 12.33 40.19 12.33L40.19 12.33L33.46 12.33L33.46 12.33Q33.28 12.33 33.16 12.21L33.16 12.21L33.16 12.21Q33.04 12.10 33.04 11.91L33.04 11.91L33.04 1.82L33.04 1.82Q33.04 1.64 33.16 1.52L33.16 1.52L33.16 1.52Q33.28 1.40 33.46 1.40L33.46 1.40L40.19 1.40L40.19 1.40Q40.36 1.40 40.49 1.52L40.49 1.52L40.49 1.52Q40.61 1.64 40.61 1.82L40.61 1.82L40.61 1.82Q40.61 1.99 40.49 2.11L40.49 2.11L40.49 2.11Q40.36 2.24 40.19 2.24L40.19 2.24L33.88 2.24L33.88 6.44L38.51 6.44L38.51 6.44Q38.70 6.44 38.81 6.56L38.81 6.56L38.81 6.56Q38.93 6.68 38.93 6.86L38.93 6.86L38.93 6.86Q38.93 7.04 38.81 7.17L38.81 7.17L38.81 7.17Q38.70 7.29 38.51 7.29L38.51 7.29L33.88 7.29L33.88 11.49L40.19 11.49ZM54.66 1.82L54.66 1.82Q54.66 1.64 54.78 1.52L54.78 1.52L54.78 1.52Q54.89 1.40 55.08 1.40L55.08 1.40L55.08 1.40Q55.24 1.40 55.37 1.52L55.37 1.52L55.37 1.52Q55.50 1.64 55.50 1.82L55.50 1.82L55.50 11.91L55.50 11.91Q55.50 12.10 55.37 12.21L55.37 12.21L55.37 12.21Q55.24 12.33 55.08 12.33L55.08 12.33L55.08 12.33Q54.89 12.33 54.78 12.21L54.78 12.21L54.78 12.21Q54.66 12.10 54.66 11.91L54.66 11.91L54.66 7.20L47.59 7.20L47.59 11.91L47.59 11.91Q47.59 12.10 47.47 12.21L47.47 12.21L47.47 12.21Q47.35 12.33 47.17 12.33L47.17 12.33L47.17 12.33Q46.98 12.33 46.87 12.21L46.87 12.21L46.87 12.21Q46.75 12.10 46.75 11.91L46.75 11.91L46.75 1.82L46.75 1.82Q46.75 1.64 46.87 1.52L46.87 1.52L46.87 1.52Q46.98 1.40 47.17 1.40L47.17 1.40L47.17 1.40Q47.35 1.40 47.47 1.52L47.47 1.52L47.47 1.52Q47.59 1.64 47.59 1.82L47.59 1.82L47.59 6.44L54.66 6.44L54.66 1.82ZM63.35 1.26L63.35 1.26Q64.92 1.26 66.20 1.99L66.20 1.99L66.20 1.99Q67.48 2.73 68.22 4.01L68.22 4.01L68.22 4.01Q68.95 5.29 68.95 6.86L68.95 6.86L68.95 6.86Q68.95 8.44 68.22 9.72L68.22 9.72L68.22 9.72Q67.48 11.00 66.20 11.74L66.20 11.74L66.20 11.74Q64.92 12.47 63.35 12.47L63.35 12.47L63.35 12.47Q61.77 12.47 60.49 11.74L60.49 11.74L60.49 11.74Q59.21 11.00 58.47 9.72L58.47 9.72L58.47 9.72Q57.74 8.44 57.74 6.86L57.74 6.86L57.74 6.86Q57.74 5.29 58.47 4.01L58.47 4.01L58.47 4.01Q59.21 2.73 60.49 1.99L60.49 1.99L60.49 1.99Q61.77 1.26 63.35 1.26L63.35 1.26ZM63.35 2.10L63.35 2.10Q62.01 2.10 60.91 2.72L60.91 2.72L60.91 2.72Q59.82 3.35 59.20 4.44L59.20 4.44L59.20 4.44Q58.58 5.53 58.58 6.86L58.58 6.86L58.58 6.86Q58.58 8.20 59.20 9.30L59.20 9.30L59.20 9.30Q59.82 10.39 60.91 11.01L60.91 11.01L60.91 11.01Q62.01 11.63 63.35 11.63L63.35 11.63L63.35 11.63Q64.68 11.63 65.77 11.01L65.77 11.01L65.77 11.01Q66.86 10.39 67.49 9.30L67.49 9.30L67.49 9.30Q68.11 8.20 68.11 6.86L68.11 6.86L68.11 6.86Q68.11 5.53 67.49 4.44L67.49 4.44L67.49 4.44Q66.86 3.35 65.77 2.72L65.77 2.72L65.77 2.72Q64.68 2.10 63.35 2.10L63.35 2.10ZM81.72 1.40L81.72 1.40Q81.90 1.40 82.01 1.52L82.01 1.52L82.01 1.52Q82.12 1.64 82.12 1.82L82.12 1.82L82.12 11.91L82.12 11.91Q82.12 12.10 82.01 12.21L82.01 12.21L82.01 12.21Q81.90 12.33 81.72 12.33L81.72 12.33L81.72 12.33Q81.54 12.33 81.41 12.21L81.41 12.21L81.41 12.21Q81.28 12.10 81.28 11.91L81.28 11.91L81.28 3.33L77.03 12.00L77.03 12.00Q76.93 12.19 76.66 12.19L76.66 12.19L76.66 12.19Q76.41 12.19 76.27 11.93L76.27 11.93L72.03 3.46L72.03 11.91L72.03 11.91Q72.03 12.10 71.91 12.21L71.91 12.21L71.91 12.21Q71.79 12.33 71.61 12.33L71.61 12.33L71.61 12.33Q71.43 12.33 71.31 12.21L71.31 12.21L71.31 12.21Q71.19 12.10 71.19 11.91L71.19 11.91L71.19 1.82L71.19 1.82Q71.19 1.64 71.31 1.52L71.31 1.52L71.31 1.52Q71.43 1.40 71.61 1.40L71.61 1.40L71.61 1.40Q71.89 1.40 71.99 1.61L71.99 1.61L76.69 10.91L81.34 1.61L81.34 1.61Q81.47 1.40 81.72 1.40L81.72 1.40Z"></path></g><!----><g data-v-423bf9ae="" id="4113096f-447c-4864-8cd3-639cace95c0e" transform="matrix(1.5671524606188592,0,0,1.5671524606188592,-6.460854978442441,-30.099740322144342)" stroke="none" fill="white"><path d="M4.523 38.516L25.1 54.501 25.056 77l16.407-10.872-5.798-5.514L58.439 77 95 19.571 4.523 38.516zm82.36-13.524L36.895 56.918 28.743 70.77l.127-17.597 58.013-28.181z"></path></g><!----></svg>